<svg xmlns="http://www.w3.org/2000/svg" width="124" height="124" viewBox="0 0 124 124">
  <metadata><?xpacket begin="﻿" id="W5M0MpCehiHzreSzNTczkc9d"?>
<x:xmpmeta xmlns:x="adobe:ns:meta/" x:xmptk="Adobe XMP Core 5.6-c138 79.159824, 2016/09/14-01:09:01        ">
   <rdf:RDF xmlns:rdf="http://www.w3.org/1999/02/22-rdf-syntax-ns#">
      <rdf:Description rdf:about=""/>
   </rdf:RDF>
</x:xmpmeta>
                                                                                                    
                                                                                                    
                                                                                                    
                                                                                                    
                                                                                                    
                                                                                                    
                                                                                                    
                                                                                                    
                                                                                                    
                                                                                                    
                                                                                                    
                                                                                                    
                                                                                                    
                                                                                                    
                                                                                                    
                                                                                                    
                                                                                                    
                                                                                                    
                                                                                                    
                                                                                                    
                           
<?xpacket end="w"?></metadata>
<defs>
    <style>
      .cls-1 {
        fill-rule: evenodd;
      }
    </style>
  </defs>
  <path id="Телефон" class="cls-1" d="M260.008,6455H207.954a9.118,9.118,0,0,0-9.1,9.1v105.79a9.12,9.12,0,0,0,9.1,9.11h52.052a9.118,9.118,0,0,0,9.1-9.1V6464.1A9.117,9.117,0,0,0,260.008,6455Zm-57.024,16.53h61.994v78.54H202.984v-78.54Zm4.97-12.4h52.052a4.977,4.977,0,0,1,4.972,4.97v3.3H202.984v-3.3A4.976,4.976,0,0,1,207.954,6459.13Zm52.054,115.74H207.954a4.976,4.976,0,0,1-4.97-4.97v-15.7h61.994v15.7A4.976,4.976,0,0,1,260.008,6574.87Zm-26.027-18.6a8.265,8.265,0,1,0,8.266,8.26A8.268,8.268,0,0,0,233.981,6556.27Zm0,12.4a4.135,4.135,0,1,1,4.133-4.14A4.143,4.143,0,0,1,233.981,6568.67Zm-8.266-103.34h8.266a2.065,2.065,0,1,0,0-4.13h-8.266A2.065,2.065,0,1,0,225.715,6465.33Zm14.465,0h2.067a2.065,2.065,0,1,0,0-4.13H240.18A2.065,2.065,0,1,0,240.18,6465.33Zm48.793-.89a2.065,2.065,0,0,0-2.922,2.92,19.833,19.833,0,0,1,0,28.01,2.062,2.062,0,0,0,0,2.92,2.055,2.055,0,0,0,2.922,0A23.964,23.964,0,0,0,288.973,6464.44Zm-8.7,4.71a2.065,2.065,0,0,0-2.922,2.92,13.57,13.57,0,0,1,0,19.17,2.062,2.062,0,0,0,0,2.92,2.055,2.055,0,0,0,2.922,0A17.7,17.7,0,0,0,280.271,6469.15Zm-98.36-1.79a2.065,2.065,0,0,0-2.922-2.92,23.964,23.964,0,0,0,0,33.85,2.055,2.055,0,0,0,2.922,0,2.062,2.062,0,0,0,0-2.92A19.827,19.827,0,0,1,181.911,6467.36Zm8.7,1.22a2.059,2.059,0,0,0-2.921,0,17.7,17.7,0,0,0,0,25.01,2.053,2.053,0,0,0,2.921,0,2.062,2.062,0,0,0,0-2.92,13.573,13.573,0,0,1,0-19.17A2.065,2.065,0,0,0,190.612,6468.58Z" transform="translate(-172 -6455)"/>
</svg>
